<svg width="15" height="14" viewBox="0 0 15 14" fill="none" xmlns="http://www.w3.org/2000/svg">
<path d="M7.5 13.3452C7.28645 13.3452 7.08057 13.2678 6.92013 13.1273C6.31416 12.5974 5.72994 12.0995 5.2145 11.6603L5.21187 11.658C3.70068 10.3702 2.39571 9.25804 1.48773 8.1625C0.472755 6.93775 0 5.77652 0 4.50794C0 3.27541 0.42263 2.13833 1.18996 1.306C1.96644 0.463829 3.03188 0 4.19037 0C5.05623 0 5.84919 0.273743 6.54716 0.81356C6.89941 1.08604 7.2187 1.41953 7.5 1.80851C7.78141 1.41953 8.10059 1.08604 8.45295 0.81356C9.15092 0.273743 9.94389 0 10.8097 0C11.9681 0 13.0337 0.463829 13.8102 1.306C14.5775 2.13833 15 3.27541 15 4.50794C15 5.77652 14.5274 6.93775 13.5124 8.16238C12.6044 9.25804 11.2996 10.3701 9.78859 11.6578C9.27223 12.0977 8.6871 12.5964 8.07976 13.1275C7.91943 13.2678 7.71343 13.3452 7.5 13.3452ZM4.19037 0.878677C3.28022 0.878677 2.44411 1.24191 1.83586 1.90155C1.21857 2.57114 0.878563 3.49674 0.878563 4.50794C0.878563 5.57487 1.2751 6.52908 2.16419 7.60185C3.02353 8.6388 4.30172 9.72805 5.78167 10.9893L5.78442 10.9916C6.3018 11.4325 6.88831 11.9324 7.49874 12.4662C8.11283 11.9314 8.70026 11.4307 9.21867 10.9891C10.6985 9.72782 11.9766 8.6388 12.8359 7.60185C13.7249 6.52908 14.1214 5.57487 14.1214 4.50794C14.1214 3.49674 13.7814 2.57114 13.1641 1.90155C12.556 1.24191 11.7198 0.878677 10.8097 0.878677C10.143 0.878677 9.53087 1.09062 8.99036 1.50856C8.50868 1.88118 8.17314 2.35222 7.97642 2.68181C7.87525 2.8513 7.69718 2.95246 7.5 2.95246C7.30282 2.95246 7.12475 2.8513 7.02358 2.68181C6.82697 2.35222 6.49143 1.88118 6.00964 1.50856C5.46913 1.09062 4.85699 0.878677 4.19037 0.878677Z" fill="#46A358"/>
</svg>
